<?xml version="1.0" encoding="UTF-8" standalone="no"?>
<svg
   viewBox="0 0 1296.0415 1275.1442"
   version="1.1"
   id="svg32"
   sodipodi:docname="1f389.svg"
   inkscape:export-filename="1f389.svg"
   inkscape:export-xdpi="86.729012"
   inkscape:export-ydpi="86.729012"
   width="1296.0415"
   height="1275.1442"
   xmlns:inkscape="http://www.inkscape.org/namespaces/inkscape"
   xmlns:sodipodi="http://sodipodi.sourceforge.net/DTD/sodipodi-0.dtd"
   xmlns="http://www.w3.org/2000/svg"
   xmlns:svg="http://www.w3.org/2000/svg">
  <defs
     id="defs36" />
  <sodipodi:namedview
     id="namedview34"
     pagecolor="#ffffff"
     bordercolor="#666666"
     borderopacity="1.0"
     inkscape:showpageshadow="2"
     inkscape:pageopacity="0.0"
     inkscape:pagecheckerboard="0"
     inkscape:deskcolor="#d1d1d1"
     showgrid="false" />
  <path
     fill="#dd2e44"
     d="m 11.626,-13.428096 c -0.112,0.112 -0.197,0.247 -0.268,0.395 l -0.008,-0.008 -11.216,25.266 0.011,0.011 c -0.208,0.403 0.14,1.223 0.853,1.937 0.713,0.713 1.533,1.061 1.936,0.853 l 0.01,0.01 25.266,-11.2169997 -0.008,-0.009 c 0.147,-0.07 0.282,-0.155 0.395,-0.269 1.562,-1.562 -0.971,-6.627 -5.656,-11.313 -4.687,-4.6860003 -9.752,-7.2180003 -11.315,-5.6560003 z"
     id="path2" />
  <path
     fill="#ea596e"
     d="M 13,-8.9160957 0.416,11.589904 l -0.282,0.635 0.011,0.011 c -0.208,0.403 0.14,1.223 0.853,1.937 0.232,0.232 0.473,0.408 0.709,0.557 L 17,-3.9160957 Z"
     id="path4" />
  <path
     fill="#a0041e"
     d="m 23.012,-7.8500957 c 4.67,4.672 7.263,9.652 5.789,11.124 -1.473,1.474 -6.453,-1.118 -11.126,-5.788 -4.671,-4.672 -7.263,-9.6540003 -5.79,-11.1270003 1.474,-1.473 6.454,1.119 11.127,5.7910003 z"
     id="path6" />
  <path
     fill="#77b255"
     d="m 30.661,1.9409043 c 1.973,-0.557 3.334,0.323 3.658,1.478 0.324,1.154 -0.378,2.615 -2.35,3.17 -0.77,0.216 -1.001,0.584 -0.97,0.701 0.034,0.118 0.425,0.312 1.193,0.095 1.972,-0.555 3.333,0.325 3.657,1.479 0.326,1.1549997 -0.378,2.6139997 -2.351,3.1699997 -0.769,0.216 -1.001,0.585 -0.967,0.702 0.033,0.117 0.423,0.311 1.192,0.095 0.53,-0.149 1.084,0.16 1.233,0.691 0.148,0.532 -0.161,1.084 -0.693,1.234 -1.971,0.555 -3.333,-0.323 -3.659,-1.479 -0.324,-1.154 0.379,-2.613 2.353,-3.169 0.77,-0.2169997 1.001,-0.5839997 0.967,-0.7019997 -0.032,-0.117 -0.422,-0.312 -1.19,-0.096 -1.974,0.556 -3.334,-0.322 -3.659,-1.479 -0.325,-1.154 0.378,-2.613 2.351,-3.17 0.768,-0.215 0.999,-0.585 0.967,-0.701 -0.034,-0.118 -0.423,-0.312 -1.192,-0.096 -0.532,0.15 -1.083,-0.16 -1.233,-0.691 -0.149,-0.53 0.161,-1.082 0.693,-1.232 z"
     id="path10" />
  <circle
     fill="#5c913b"
     cx="32.5"
     cy="-1.4160957"
     r="1.5"
     id="circle20" />
  <circle
     fill="#5c913b"
     cx="23.5"
     cy="10.583904"
     r="1.5"
     id="circle22" />
  <circle
     fill="#ffcc4d"
     cx="7.5"
     cy="2.5839043"
     r="1.5"
     id="circle30" />
</svg>
